<svg width="162" height="45" viewBox="0 0 162 45" fill="none" xmlns="http://www.w3.org/2000/svg">
<g clip-path="url(#clip0_6_39)">
<path d="M62.3538 12.1635L65.0043 2.90051H69.95L64.3485 19.2406C63.9113 20.4611 63.3375 21.3173 62.627 21.8091C61.9166 22.3192 60.9238 22.5742 59.6486 22.5742H56.4243V18.7488H58.3371C58.8289 18.7488 59.2023 18.6668 59.4574 18.5029C59.7306 18.3389 59.9401 18.0657 60.0858 17.6831L60.2225 17.3006L54.6482 2.90051H59.7033L61.8619 9.64968L62.3538 12.1635ZM78.7507 17.3279C77.3116 17.3279 76.0182 17.0091 74.8706 16.3715C73.7229 15.734 72.8121 14.8596 72.1381 13.7484C71.4823 12.6372 71.1544 11.3894 71.1544 10.0049C71.1544 8.60224 71.4823 7.35442 72.1381 6.26143C72.8121 5.15023 73.7229 4.27585 74.8706 3.63827C76.0182 2.98248 77.3116 2.65459 78.7507 2.65459C80.1898 2.65459 81.474 2.98248 82.6034 3.63827C83.7511 4.27585 84.6528 5.15023 85.3086 6.26143C85.9826 7.35442 86.3196 8.60224 86.3196 10.0049C86.3196 11.3894 85.9826 12.6372 85.3086 13.7484C84.6528 14.8596 83.7511 15.734 82.6034 16.3715C81.4558 17.0091 80.1716 17.3279 78.7507 17.3279ZM78.7507 13.6391C79.4247 13.6391 80.0076 13.4751 80.4994 13.1472C80.9913 12.8193 81.3738 12.3821 81.6471 11.8357C81.9203 11.2892 82.0569 10.6698 82.0569 9.97758C82.0569 9.30357 81.9203 8.69332 81.6471 8.14683C81.3738 7.60034 80.9913 7.16315 80.4994 6.83525C80.0076 6.50736 79.4247 6.34341 78.7507 6.34341C78.0767 6.34341 77.4846 6.50736 76.9746 6.83525C76.4827 7.16315 76.1002 7.60034 75.8269 8.14683C75.5537 8.69332 75.4171 9.30357 75.4171 9.97758C75.4171 10.6698 75.5537 11.2892 75.8269 11.8357C76.1002 12.3821 76.4827 12.8193 76.9746 13.1472C77.4846 13.4751 78.0767 13.6391 78.7507 13.6391ZM95.8298 17.3279C94.3907 17.3279 93.1429 17.0546 92.0864 16.5082C91.048 15.9434 90.2465 15.1875 89.6818 14.2402C89.1171 13.2747 88.8347 12.2091 88.8347 11.0432V2.98248H93.07V10.9339C93.07 11.4258 93.1884 11.8812 93.4253 12.3002C93.6621 12.7009 93.9809 13.0288 94.3816 13.2839C94.8006 13.5207 95.2742 13.6391 95.8025 13.6391C96.3126 13.6391 96.768 13.5207 97.1687 13.2839C97.5877 13.0288 97.9156 12.7009 98.1524 12.3002C98.3892 11.8812 98.5076 11.4258 98.5076 10.9339V2.98248H102.743V11.0432C102.743 12.2091 102.47 13.2747 101.923 14.2402C101.377 15.1875 100.584 15.9434 99.546 16.5082C98.5258 17.0546 97.2871 17.3279 95.8298 17.3279ZM105.913 17V8.93924C105.913 7.7734 106.195 6.71684 106.76 5.76959C107.324 4.82234 108.126 4.06636 109.164 3.50165C110.221 2.93694 111.469 2.65459 112.908 2.65459C114.365 2.65459 115.604 2.93694 116.624 3.50165C117.662 4.06636 118.455 4.82234 119.001 5.76959C119.548 6.71684 119.821 7.7734 119.821 8.93924V17H115.586V9.04854C115.586 8.5567 115.467 8.1104 115.23 7.70964C114.993 7.29066 114.666 6.96277 114.247 6.72595C113.846 6.47092 113.39 6.34341 112.88 6.34341C112.352 6.34341 111.878 6.47092 111.459 6.72595C111.059 6.96277 110.74 7.29066 110.503 7.70964C110.266 8.1104 110.148 8.5567 110.148 9.04854V17H105.913ZM125.122 22.5469V18.9127H132.117C132.39 18.9127 132.618 18.8216 132.8 18.6395C132.982 18.4755 133.073 18.266 133.073 18.011V14.9233H132.991C132.627 15.3423 132.235 15.6975 131.816 15.989C131.416 16.2805 130.96 16.499 130.45 16.6448C129.958 16.7905 129.403 16.8634 128.783 16.8634C127.545 16.8634 126.433 16.5719 125.45 15.989C124.484 15.3878 123.719 14.559 123.154 13.5025C122.608 12.4459 122.335 11.2436 122.335 9.89561C122.335 8.56581 122.617 7.35442 123.182 6.26143C123.765 5.16845 124.612 4.29406 125.723 3.63827C126.834 2.98248 128.191 2.65459 129.794 2.65459C131.324 2.65459 132.645 2.97338 133.756 3.61095C134.886 4.23031 135.76 5.1138 136.38 6.26143C136.999 7.39085 137.309 8.72065 137.309 10.2508V18.4482C137.309 19.7051 136.935 20.6979 136.188 21.4266C135.46 22.1735 134.449 22.5469 133.155 22.5469H125.122ZM129.822 13.3112C130.477 13.3112 131.042 13.1654 131.516 12.874C131.989 12.5643 132.354 12.1544 132.609 11.6444C132.864 11.1343 132.991 10.5696 132.991 9.95025C132.991 9.29446 132.864 8.69332 132.609 8.14683C132.354 7.60034 131.989 7.17225 131.516 6.86258C131.042 6.53468 130.477 6.37073 129.822 6.37073C129.184 6.37073 128.619 6.52557 128.127 6.83525C127.654 7.14493 127.29 7.56391 127.035 8.09218C126.779 8.62046 126.652 9.21249 126.652 9.86828C126.652 10.5059 126.779 11.0888 127.035 11.6171C127.29 12.1271 127.654 12.537 128.127 12.8467C128.619 13.1563 129.184 13.3112 129.822 13.3112ZM72.9557 24.4633C74.4859 24.4633 75.6882 24.9278 76.5626 25.8569C77.4552 26.7859 77.9015 28.0702 77.9015 29.7096V39H73.2016V30.584C73.2016 29.91 73.0468 29.3817 72.7371 28.9992C72.4274 28.5984 71.9994 28.3981 71.4529 28.3981C70.7971 28.3981 70.2597 28.6531 69.8407 29.1631C69.44 29.6732 69.2396 30.3472 69.2396 31.1852V39H64.5397V30.584C64.5397 29.91 64.3849 29.3817 64.0752 28.9992C63.7656 28.5984 63.3375 28.3981 62.791 28.3981C62.117 28.3981 61.5796 28.6531 61.1788 29.1631C60.7781 29.6732 60.5777 30.3472 60.5777 31.1852V39H55.8779V24.9005H60.3044L60.4411 26.6766C61.3701 25.2011 62.6908 24.4633 64.4031 24.4633C66.3705 24.4633 67.7641 25.2648 68.5838 26.8679C69.5857 25.2648 71.043 24.4633 72.9557 24.4633ZM87.8754 39.3279C86.4363 39.3279 85.152 39.0091 84.0226 38.3715C82.8932 37.7157 82.0006 36.8414 81.3448 35.7484C80.689 34.6372 80.3611 33.3985 80.3611 32.0322C80.3611 30.666 80.689 29.4364 81.3448 28.3434C82.0006 27.2322 82.8932 26.3578 84.0226 25.7202C85.152 25.0645 86.4363 24.7366 87.8754 24.7366C89.3145 24.7366 90.5987 25.0645 91.7281 25.7202C92.8576 26.3578 93.7502 27.2322 94.406 28.3434C95.0617 29.4364 95.3896 30.666 95.3896 32.0322C95.3896 33.3985 95.0617 34.6372 94.406 35.7484C93.7502 36.8414 92.8576 37.7157 91.7281 38.3715C90.5987 39.0091 89.3145 39.3279 87.8754 39.3279ZM87.8754 36.1309C88.6405 36.1309 89.2963 35.9488 89.8427 35.5844C90.4075 35.2201 90.8355 34.7283 91.127 34.1089C91.4367 33.4895 91.5915 32.7973 91.5915 32.0322C91.5915 31.2671 91.4367 30.5749 91.127 29.9556C90.8355 29.3362 90.4075 28.8444 89.8427 28.48C89.2963 28.1157 88.6405 27.9335 87.8754 27.9335C87.1103 27.9335 86.4454 28.1157 85.8807 28.48C85.3342 28.8444 84.9061 29.3362 84.5964 29.9556C84.305 30.5749 84.1592 31.2671 84.1592 32.0322C84.1592 32.7973 84.305 33.4895 84.5964 34.1089C84.9061 34.7283 85.3342 35.2201 85.8807 35.5844C86.4454 35.9488 87.1103 36.1309 87.8754 36.1309ZM98.1253 39V30.9939C98.1253 29.8463 98.3894 28.7988 98.9177 27.8516C99.4642 26.9043 100.248 26.1483 101.268 25.5836C102.288 25.0189 103.508 24.7366 104.929 24.7366C106.368 24.7366 107.589 25.0189 108.591 25.5836C109.611 26.1483 110.385 26.9043 110.913 27.8516C111.46 28.7988 111.733 29.8463 111.733 30.9939V39H107.989V30.9939C107.989 30.4292 107.853 29.9191 107.58 29.4637C107.306 28.9901 106.933 28.6167 106.459 28.3434C106.004 28.0702 105.494 27.9335 104.929 27.9335C104.364 27.9335 103.845 28.0702 103.372 28.3434C102.916 28.6167 102.552 28.9901 102.279 29.4637C102.005 29.9191 101.869 30.4292 101.869 30.9939V39H98.1253ZM115.283 39V19.053H119.027V30.3928H121.24L124.601 25.0645H128.7L124.874 30.9666C126.058 31.4584 126.978 32.2144 127.634 33.2345C128.29 34.2546 128.618 35.3932 128.618 36.6501V39H124.874V36.6501C124.874 36.0854 124.728 35.5753 124.437 35.1199C124.164 34.6463 123.799 34.2728 123.344 33.9996C122.889 33.7264 122.379 33.5897 121.814 33.5897H119.027V39H115.283ZM138.636 39C137.052 39 135.667 38.6994 134.483 38.0983C133.317 37.4789 132.406 36.641 131.751 35.5844C131.113 34.5279 130.794 33.3438 130.794 32.0322C130.794 30.5567 131.095 29.2724 131.696 28.1795C132.297 27.0865 133.117 26.2394 134.155 25.6383C135.193 25.0371 136.368 24.7366 137.68 24.7366C139.247 24.7366 140.513 25.0645 141.478 25.7202C142.462 26.376 143.181 27.2595 143.637 28.3707C144.092 29.4637 144.32 30.6842 144.32 32.0322C144.32 32.2144 144.311 32.433 144.293 32.688C144.274 32.9248 144.247 33.107 144.211 33.2345H134.784C134.929 33.7992 135.175 34.2728 135.521 34.6554C135.886 35.0379 136.332 35.3294 136.86 35.5298C137.407 35.7119 138.017 35.803 138.691 35.803H142.571V39H138.636ZM134.756 30.7206H140.576C140.54 30.3745 140.476 30.0557 140.385 29.7643C140.294 29.4546 140.167 29.1814 140.003 28.9445C139.839 28.7077 139.647 28.5074 139.429 28.3434C139.21 28.1795 138.955 28.0519 138.664 27.9609C138.372 27.8698 138.053 27.8242 137.707 27.8242C137.252 27.8242 136.842 27.9062 136.478 28.0702C136.132 28.2341 135.84 28.4527 135.603 28.726C135.367 28.9992 135.175 29.3089 135.03 29.655C134.902 30.0011 134.811 30.3563 134.756 30.7206ZM153.16 34.1635L155.811 24.9005H160.756L155.155 41.2406C154.718 42.4611 154.144 43.3173 153.433 43.8091C152.723 44.3192 151.73 44.5742 150.455 44.5742H147.231V40.7488H149.143C149.635 40.7488 150.009 40.6668 150.264 40.5029C150.537 40.3389 150.746 40.0657 150.892 39.6831L151.029 39.3006L145.454 24.9005H150.51L152.668 31.6497L153.16 34.1635Z" fill="#E6FFF3"/>
<path d="M42.4621 10.1699C42.2856 10.1699 42.113 10.1766 41.9444 10.1938C40.8446 6.88422 37.8652 4.42458 34.2324 4.15143L29.2153 3.77353L29.4893 4.76535L27.6808 4.24027C26.4321 3.87563 25.2638 3.26834 24.2483 2.44758C23.2327 3.26569 22.0644 3.87563 20.8118 4.24027L19.0073 4.76535L19.2786 3.77353L14.2641 4.15143C10.6314 4.42458 7.64932 6.8882 6.55212 10.1938C6.38353 10.1766 6.20703 10.1699 6.03448 10.1699C3.11563 10.1699 0.75 12.5527 0.75 15.4897C0.75 18.4267 3.11695 20.8094 6.03448 20.8094H6.09902V23.0582C6.09902 26.0124 8.19858 28.545 11.0858 29.0741L14.3498 29.6708L13.9507 28.2467H14.0732L16.5679 29.6548V33.7653C16.5679 35.9226 18.3052 37.6716 20.4482 37.6716H28.0457C30.1887 37.6716 31.926 35.9226 31.926 33.7653V29.6548L34.4208 28.2467H34.5433L34.1442 29.6708L37.4107 29.0741C40.298 28.5463 42.3975 26.0138 42.3975 23.0582V20.8094H42.4621C45.3809 20.8094 47.7465 18.4267 47.7465 15.4897C47.7465 12.5527 45.3796 10.1699 42.4621 10.1699ZM6.09902 13.0088V18.6839H6.03448C4.28133 18.6839 2.86274 17.2519 2.86274 15.487C2.86274 13.7222 4.28528 12.2901 6.03448 12.2901H6.12931C6.10956 12.5248 6.09902 12.7635 6.09902 13.0022V13.0088ZM38.7253 18.2609C38.6173 20.0735 37.6966 21.6898 36.3214 22.732C36.2977 22.7493 36.2701 22.7692 36.2463 22.7904H36.2424C35.4165 23.3937 34.4339 23.7955 33.371 23.9082C32.8625 23.9625 32.3686 23.9493 31.8918 23.8843C31.2148 23.7888 30.5746 23.5846 29.9924 23.281V33.1103C29.9964 33.642 29.8094 34.1286 29.4945 34.5105C29.1389 34.9467 28.6213 35.2398 28.0325 35.3008C27.9574 35.3074 27.8837 35.3114 27.8086 35.3114H20.6959C20.6208 35.3114 20.5431 35.3074 20.472 35.3008C19.8858 35.2424 19.3655 34.9467 19.0099 34.5131C18.699 34.1313 18.5094 33.6446 18.5094 33.1129V23.8909L18.5133 23.281C17.9272 23.5806 17.2884 23.7888 16.614 23.8843C16.1372 23.9519 15.6419 23.9625 15.1348 23.9082C14.0784 23.7955 13.1037 23.4003 12.2805 22.8036C12.2673 22.793 12.2502 22.7837 12.237 22.7731C12.2238 22.7625 12.2094 22.7533 12.2001 22.7453C10.8158 21.7057 9.88851 20.0801 9.77918 18.2636C9.7726 18.1615 9.76865 18.0594 9.76865 17.9573C9.72781 14.413 12.8363 11.7717 16.2043 12.0581C16.9222 12.1403 17.6295 12.3472 18.2894 12.6853L23.4527 15.3372C23.703 15.4671 23.9809 15.5308 24.2588 15.5308C24.5367 15.5308 24.8107 15.4658 25.0649 15.3372L30.2282 12.6853C30.8947 12.3405 31.6126 12.1337 32.337 12.0541C35.6984 11.785 38.7859 14.4223 38.749 17.9573C38.749 18.0594 38.745 18.1615 38.7384 18.2636H38.7253V18.2609ZM42.4621 18.6865H42.3975V13.0115C42.3975 12.7728 42.3844 12.5341 42.3672 12.2994H42.4621C44.2152 12.2994 45.6378 13.7315 45.6378 15.4963C45.6378 17.2611 44.2152 18.6932 42.4621 18.6932V18.6865Z" fill="#23FC94"/>
<path d="M15.7104 13.3562C13.1748 13.3562 11.1201 15.4247 11.1201 17.9772C11.1201 20.5296 13.1748 22.5955 15.7104 22.5955C18.2459 22.5955 20.3007 20.527 20.3007 17.9772C20.3007 15.4274 18.2459 13.3562 15.7104 13.3562ZM15.7104 21.1064C13.9941 21.1064 12.5992 19.7022 12.5992 17.9745C12.5992 16.2468 13.9941 14.8426 15.7104 14.8426C17.4267 14.8426 18.8215 16.2468 18.8215 17.9745C18.8215 19.7022 17.4267 21.1064 15.7104 21.1064Z" fill="#23FC94"/>
<path d="M17.4741 17.5953L14.928 16.1155C14.762 16.0201 14.5592 16.1394 14.5592 16.3303V19.2885C14.5592 19.4795 14.766 19.5988 14.928 19.5033L17.4741 18.0249C17.64 17.9294 17.64 17.6908 17.4741 17.5953Z" fill="#23FC94"/>
<path d="M30.3771 18.8192H35.1505C35.2861 18.8192 35.3981 18.7064 35.3981 18.5699V17.2678C35.3981 17.1312 35.2861 17.0185 35.1505 17.0185H30.3771C30.2414 17.0185 30.1294 17.1312 30.1294 17.2678V18.5699C30.1294 18.7064 30.2414 18.8192 30.3771 18.8192Z" fill="#23FC94"/>
<path d="M25.522 26.0721C25.518 25.8746 25.5048 25.6796 25.4983 25.4821C25.4746 25.0896 25.4403 24.7011 25.3995 24.3126L25.3349 23.692C25.3244 23.5833 25.1795 23.5594 25.1321 23.6576L24.8449 24.2569C24.679 24.6043 24.5196 24.9557 24.3642 25.3097C24.3299 25.3879 24.2996 25.4662 24.2654 25.5417C24.2588 25.5285 24.2549 25.5179 24.2483 25.5046C24.2206 25.4396 24.1943 25.3747 24.1666 25.311C24.0112 24.957 23.8558 24.6056 23.6858 24.2582L23.3947 23.6589C23.3473 23.5594 23.2051 23.5873 23.1919 23.6934L23.1274 24.3139C23.0865 24.7024 23.0523 25.0909 23.0286 25.4834C23.022 25.681 23.0088 25.8759 23.0049 26.0734C23.0009 26.271 22.9983 26.4686 23.0049 26.6661C23.0799 26.4818 23.1432 26.2949 23.2077 26.1106C23.2723 25.9236 23.3263 25.7353 23.3868 25.551C23.404 25.49 23.4211 25.4317 23.4382 25.3707C23.4619 25.4383 23.4856 25.5073 23.5093 25.5749C23.6081 25.848 23.7096 26.1199 23.8136 26.389C23.8505 26.4845 23.8742 26.5826 23.8887 26.6821L23.9835 27.1939L23.9967 27.2522C24.0204 27.3543 24.1113 27.4259 24.2167 27.4259H24.3075C24.4129 27.4259 24.5038 27.3543 24.5275 27.2522L24.5446 27.1846L24.6329 26.7006C24.6434 26.5945 24.6698 26.4924 24.708 26.3943C24.8133 26.1212 24.9148 25.8494 25.0122 25.5736C25.0359 25.5059 25.0596 25.4343 25.0834 25.3654C25.1005 25.4264 25.1176 25.4887 25.1374 25.5497C25.1979 25.7367 25.252 25.9249 25.3165 26.1092C25.381 26.2962 25.4456 26.4805 25.5193 26.6648C25.5259 26.4673 25.5193 26.2697 25.5193 26.0721H25.522Z" fill="#23FC94"/>
</g>
<defs>
<clipPath id="clip0_6_39">
<rect width="161" height="45" fill="white" transform="translate(0.375)"/>
</clipPath>
</defs>
</svg>
