<svg xmlns="http://www.w3.org/2000/svg" width="1920" height="1080" fill="none"><path fill="#23FC94" fill-rule="evenodd" d="M959.524 378a90.8 90.8 0 0 0 31.63 16.519l16.666 4.837-2.53-9.138 46.23 3.482c33.48 2.517 60.93 25.181 71.07 55.677 1.55-.159 3.14-.22 4.77-.22 26.88 0 48.69 21.956 48.69 49.019s-21.8 49.018-48.69 49.018h-.6v20.723c0 27.234-19.35 50.57-45.95 55.433l-30.1 5.498 3.68-13.122h-1.13l-22.99 12.975v37.876c0 19.879-16.01 35.994-35.754 35.994H924.51c-19.747 0-35.756-16.115-35.756-35.994v-37.876l-22.987-12.975h-1.129l3.676 13.122-30.075-5.498c-26.604-4.875-45.951-28.212-45.951-55.433v-20.723h-.595c-26.883 0-48.693-21.955-48.693-49.018s21.798-49.019 48.693-49.019c1.59 0 3.217.061 4.771.22 10.11-30.459 37.589-53.16 71.062-55.677l46.205-3.482-2.5 9.138 16.628-4.837A91.1 91.1 0 0 0 959.524 378m133.616 142.914c.34-32.573-28.11-56.875-59.08-54.394-6.68.733-13.29 2.638-19.43 5.815l-47.58 24.436a16.4 16.4 0 0 1-7.428 1.784c-2.561 0-5.122-.586-7.428-1.784l-47.577-24.436c-6.08-3.116-12.598-5.022-19.213-5.779-31.034-2.639-59.678 21.699-59.301 54.358 0 .941.036 1.882.096 2.822 1.008 16.739 9.552 31.718 22.308 41.297.085.073.218.159.34.257.121.098.28.183.401.28 7.586 5.498 16.567 9.14 26.301 10.178 4.673.501 9.236.403 13.63-.22a55.5 55.5 0 0 0 17.501-5.559l-.036 5.621v84.975c0 4.9 1.748 9.384 4.612 12.903 3.277 3.995 8.071 6.72 13.472 7.258.655.061 1.371.097 2.063.097h65.54c.692 0 1.372-.036 2.064-.097a20 20 0 0 0 13.475-7.283 19.93 19.93 0 0 0 4.58-12.902v-90.572c5.37 2.798 11.27 4.68 17.51 5.559 4.39.599 8.94.721 13.63.22 9.79-1.038 18.85-4.741 26.45-10.3h.04c.21-.186.45-.36.66-.513l.03-.024c12.67-9.599 21.15-24.483 22.15-41.175h.12c.06-.94.1-1.881.1-2.822m33.34-52.135c.16 2.163.28 4.363.28 6.562v52.293h.6v.061c16.15 0 29.26-13.196 29.26-29.458s-13.11-29.458-29.26-29.458zm-334.787-.085c-16.117.001-29.225 13.195-29.225 29.457s13.071 29.458 29.225 29.458h.595v-52.354c0-2.199.097-4.398.279-6.561z" clip-rule="evenodd"/></svg>