<svg xmlns="http://www.w3.org/2000/svg" width="1920" height="1080" fill="none"><path fill="#23FC94" d="M967.668 573.44c.437-.905 1.772-.685 1.869.317l.595 5.718c.376 3.579.691 7.16.91 10.776.06 1.816.182 3.609.219 5.425l-.025.024q0 .468.005.936c.009 1.026-1.23 1.248-1.567.279l-.307-.885c-.595-1.698-1.092-3.433-1.65-5.156-.167-.515-.892-.534-1.069-.022l-.085.242a282 282 0 0 1-2.803 7.563 10.7 10.7 0 0 0-.692 2.823l-.813 4.46-.158.623a2.07 2.07 0 0 1-2.027 1.6h-.838c-.97 0-1.808-.66-2.026-1.6l-.121-.539-.874-4.715a12.5 12.5 0 0 0-.693-2.701 371 371 0 0 1-2.803-7.501l-.087-.25c-.176-.503-.897-.483-1.041.03-.559 1.698-1.057 3.432-1.652 5.155-.414 1.184-1.894.912-1.869-.342.037-1.82.158-3.616.219-5.436.218-3.617.534-7.197.91-10.777l.595-5.717c.121-.978 1.432-1.235 1.869-.319l2.683 5.523c1.565 3.201 2.997 6.439 4.429 9.701.255.586.498 1.185.753 1.784.067.135.251.135.311-.003.255-.588.493-1.191.757-1.793 1.432-3.262 2.901-6.5 4.43-9.701z"/></svg>