<svg xmlns="http://www.w3.org/2000/svg" width="1920" height="1080" fill="none"><g clip-path="url(#a)"><path fill="#00151B" d="M1920 1080H0V0h1920zM959.524 378a91.1 91.1 0 0 1-31.665 16.519l-16.628 4.837 2.5-9.138-46.205 3.482c-33.473 2.517-60.952 25.218-71.062 55.677a47 47 0 0 0-4.771-.22c-26.895 0-48.693 21.956-48.693 49.019s21.81 49.018 48.693 49.018h.595v20.723c0 27.221 19.347 50.558 45.951 55.433l30.075 5.498-3.676-13.122h1.129l22.987 12.975v37.876c0 19.879 16.009 35.994 35.756 35.994h70.006c19.744 0 35.754-16.115 35.754-35.994v-37.876l22.99-12.975h1.13l-3.68 13.122 30.1-5.498c26.6-4.863 45.95-28.199 45.95-55.433v-20.723h.6c26.89 0 48.69-21.955 48.69-49.018s-21.81-49.019-48.69-49.019c-1.63 0-3.22.061-4.77.22-10.14-30.496-37.59-53.16-71.07-55.677l-46.23-3.482 2.53 9.138-16.666-4.837A90.8 90.8 0 0 1 959.524 378"/></g><defs><clipPath id="a"><path fill="#fff" d="M0 0h1920v1080H0z"/></clipPath></defs></svg>