<svg xmlns="http://www.w3.org/2000/svg" width="1920" height="1080" fill="none"><path fill="#00151B" stroke="#00151B" d="M959.839 377.611a90.3 90.3 0 0 0 31.454 16.427h.001l15.806 4.588-2.29-8.275-.19-.685.71.053 46.23 3.482.79.064c33.19 2.814 60.37 25.327 70.58 55.577 1.45-.133 2.92-.185 4.43-.185 27.16 0 49.19 22.183 49.19 49.519s-22.02 49.518-49.19 49.518h-.1v20.223l-.01 1.285c-.59 26.492-19.32 49.082-45.1 54.396l-1.25.244-30.1 5.498-.79.143.22-.77 3.5-12.487h-.34l-22.62 12.767v37.584l-.01.942c-.5 19.716-16.53 35.552-36.244 35.552H924.51c-20.026 0-36.256-16.342-36.256-36.494v-37.584l-22.619-12.767h-.338l3.499 12.487.216.77-.787-.143-30.076-5.498c-26.843-4.919-46.361-28.464-46.361-55.925v-20.223h-.095c-27.162 0-49.193-22.182-49.193-49.518l.004-.64c.34-27.041 22.227-48.879 49.189-48.879 1.468 0 2.972.052 4.425.185 10.273-30.453 37.828-53.119 71.371-55.641l46.205-3.482.706-.053-.186.684-2.265 8.276 15.771-4.588 1.074-.319a90.6 90.6 0 0 0 30.417-16.109l.314-.253z"/><mask id="a" width="436" height="328" x="742" y="376" fill="#000" maskUnits="userSpaceOnUse"><path fill="#fff" d="M742 376h436v328H742z"/><path d="M967.668 573.439c.437-.904 1.772-.684 1.869.318l.595 5.718c.376 3.579.692 7.16.91 10.776.061 1.816.182 3.609.219 5.425l-.025.024q.001.468.005.936c.009 1.026-1.23 1.248-1.567.279l-.307-.885c-.595-1.698-1.092-3.433-1.65-5.156-.167-.515-.892-.534-1.069-.022l-.085.242a282 282 0 0 1-2.803 7.563 10.7 10.7 0 0 0-.692 2.822l-.813 4.46-.158.623a2.07 2.07 0 0 1-2.027 1.601h-.838c-.97 0-1.807-.66-2.026-1.601l-.121-.538-.874-4.715a12.5 12.5 0 0 0-.692-2.701 363 363 0 0 1-2.804-7.502l-.087-.25c-.176-.502-.897-.482-1.041.031-.558 1.698-1.057 3.432-1.651 5.155-.415 1.184-1.895.912-1.87-.342.037-1.82.158-3.616.219-5.436.219-3.617.534-7.197.91-10.777l.595-5.717c.121-.978 1.432-1.235 1.869-.319l2.683 5.523c1.565 3.201 2.997 6.439 4.429 9.701.255.586.499 1.185.753 1.784.068.135.251.135.311-.003.255-.588.493-1.191.757-1.793 1.432-3.262 2.901-6.5 4.43-9.701zM870.245 505.923c0-1.759 1.868-2.859 3.398-1.98l23.461 13.635c1.529.88 1.529 3.079 0 3.959l-23.461 13.623c-1.493.88-3.398-.22-3.398-1.979z"/><path fill-rule="evenodd" d="M880.853 478.518c23.363 0 42.297 19.084 42.297 42.58s-18.934 42.555-42.297 42.555c-23.364 0-42.297-19.036-42.297-42.555 0-23.52 18.933-42.58 42.297-42.58m0 13.696c-15.815 0-28.667 12.939-28.667 28.859s12.852 28.859 28.667 28.859c15.814 0 28.667-12.939 28.668-28.859s-12.854-28.859-28.668-28.859" clip-rule="evenodd"/><path d="M1059.98 512.264c1.25 0 2.28 1.038 2.28 2.297v11.998c0 1.258-1.03 2.296-2.28 2.296H1016c-1.25 0-2.28-1.038-2.28-2.296v-11.998c0-1.259 1.03-2.297 2.28-2.297z"/><path fill-rule="evenodd" d="M959.524 378a90.8 90.8 0 0 0 31.63 16.519l16.666 4.837-2.53-9.138 46.23 3.482c33.48 2.517 60.93 25.181 71.07 55.677 1.55-.159 3.14-.22 4.77-.22 26.88 0 48.69 21.956 48.69 49.019s-21.8 49.018-48.69 49.018h-.6v20.723c0 27.234-19.35 50.57-45.95 55.433l-30.1 5.498 3.68-13.122h-1.13l-22.99 12.975v37.876c0 19.879-16.01 35.994-35.754 35.994H924.51c-19.747 0-35.756-16.115-35.756-35.994v-37.876l-22.987-12.975h-1.129l3.676 13.122-30.075-5.498c-26.604-4.875-45.951-28.212-45.951-55.433v-20.723h-.595c-26.883 0-48.693-21.955-48.693-49.018s21.798-49.019 48.693-49.019c1.59 0 3.217.061 4.771.22 10.11-30.459 37.589-53.16 71.062-55.677l46.205-3.482-2.5 9.138 16.628-4.837A91.1 91.1 0 0 0 959.524 378m133.616 142.914c.34-32.573-28.11-56.875-59.08-54.394-6.68.733-13.29 2.638-19.43 5.815l-47.58 24.436a16.4 16.4 0 0 1-7.428 1.784c-2.561 0-5.122-.586-7.428-1.784l-47.577-24.436c-6.08-3.116-12.598-5.022-19.213-5.779-31.034-2.639-59.678 21.699-59.301 54.358 0 .941.036 1.882.096 2.822 1.008 16.739 9.552 31.718 22.308 41.297.085.073.218.159.34.257.121.098.28.183.401.28 7.586 5.498 16.567 9.14 26.301 10.178 4.673.501 9.236.403 13.63-.22a55.5 55.5 0 0 0 17.501-5.559l-.036 5.621v84.975c0 4.9 1.748 9.384 4.612 12.903 3.277 3.995 8.071 6.72 13.472 7.258.655.061 1.371.097 2.063.097h65.54c.692 0 1.372-.036 2.064-.097a20 20 0 0 0 13.475-7.283 19.93 19.93 0 0 0 4.58-12.902v-90.572c5.37 2.798 11.27 4.68 17.51 5.559 4.39.599 8.94.721 13.63.22 9.79-1.038 18.85-4.741 26.45-10.3h.04c.21-.186.45-.36.66-.513l.03-.024c12.67-9.599 21.15-24.483 22.15-41.175h.12c.06-.94.1-1.881.1-2.822m33.34-52.135c.16 2.163.28 4.363.28 6.562v52.293h.6v.061c16.15 0 29.26-13.196 29.26-29.458s-13.11-29.458-29.26-29.458zm-334.787-.085c-16.117.001-29.225 13.195-29.225 29.457s13.071 29.458 29.225 29.458h.595v-52.354c0-2.199.097-4.398.279-6.561z" clip-rule="evenodd"/></mask><path fill="#0A2E3A" d="M967.668 573.439c.437-.904 1.772-.684 1.869.318l.595 5.718c.376 3.579.692 7.16.91 10.776.061 1.816.182 3.609.219 5.425l-.025.024q.001.468.005.936c.009 1.026-1.23 1.248-1.567.279l-.307-.885c-.595-1.698-1.092-3.433-1.65-5.156-.167-.515-.892-.534-1.069-.022l-.085.242a282 282 0 0 1-2.803 7.563 10.7 10.7 0 0 0-.692 2.822l-.813 4.46-.158.623a2.07 2.07 0 0 1-2.027 1.601h-.838c-.97 0-1.807-.66-2.026-1.601l-.121-.538-.874-4.715a12.5 12.5 0 0 0-.692-2.701 363 363 0 0 1-2.804-7.502l-.087-.25c-.176-.502-.897-.482-1.041.031-.558 1.698-1.057 3.432-1.651 5.155-.415 1.184-1.895.912-1.87-.342.037-1.82.158-3.616.219-5.436.219-3.617.534-7.197.91-10.777l.595-5.717c.121-.978 1.432-1.235 1.869-.319l2.683 5.523c1.565 3.201 2.997 6.439 4.429 9.701.255.586.499 1.185.753 1.784.068.135.251.135.311-.003.255-.588.493-1.191.757-1.793 1.432-3.262 2.901-6.5 4.43-9.701zM870.245 505.923c0-1.759 1.868-2.859 3.398-1.98l23.461 13.635c1.529.88 1.529 3.079 0 3.959l-23.461 13.623c-1.493.88-3.398-.22-3.398-1.979z"/><path fill="#0A2E3A" fill-rule="evenodd" d="M880.853 478.518c23.363 0 42.297 19.084 42.297 42.58s-18.934 42.555-42.297 42.555c-23.364 0-42.297-19.036-42.297-42.555 0-23.52 18.933-42.58 42.297-42.58m0 13.696c-15.815 0-28.667 12.939-28.667 28.859s12.852 28.859 28.667 28.859c15.814 0 28.667-12.939 28.668-28.859s-12.854-28.859-28.668-28.859" clip-rule="evenodd"/><path fill="#0A2E3A" d="M1059.98 512.264c1.25 0 2.28 1.038 2.28 2.297v11.998c0 1.258-1.03 2.296-2.28 2.296H1016c-1.25 0-2.28-1.038-2.28-2.296v-11.998c0-1.259 1.03-2.297 2.28-2.297z"/><path fill="#0A2E3A" fill-rule="evenodd" d="M959.524 378a90.8 90.8 0 0 0 31.63 16.519l16.666 4.837-2.53-9.138 46.23 3.482c33.48 2.517 60.93 25.181 71.07 55.677 1.55-.159 3.14-.22 4.77-.22 26.88 0 48.69 21.956 48.69 49.019s-21.8 49.018-48.69 49.018h-.6v20.723c0 27.234-19.35 50.57-45.95 55.433l-30.1 5.498 3.68-13.122h-1.13l-22.99 12.975v37.876c0 19.879-16.01 35.994-35.754 35.994H924.51c-19.747 0-35.756-16.115-35.756-35.994v-37.876l-22.987-12.975h-1.129l3.676 13.122-30.075-5.498c-26.604-4.875-45.951-28.212-45.951-55.433v-20.723h-.595c-26.883 0-48.693-21.955-48.693-49.018s21.798-49.019 48.693-49.019c1.59 0 3.217.061 4.771.22 10.11-30.459 37.589-53.16 71.062-55.677l46.205-3.482-2.5 9.138 16.628-4.837A91.1 91.1 0 0 0 959.524 378m133.616 142.914c.34-32.573-28.11-56.875-59.08-54.394-6.68.733-13.29 2.638-19.43 5.815l-47.58 24.436a16.4 16.4 0 0 1-7.428 1.784c-2.561 0-5.122-.586-7.428-1.784l-47.577-24.436c-6.08-3.116-12.598-5.022-19.213-5.779-31.034-2.639-59.678 21.699-59.301 54.358 0 .941.036 1.882.096 2.822 1.008 16.739 9.552 31.718 22.308 41.297.085.073.218.159.34.257.121.098.28.183.401.28 7.586 5.498 16.567 9.14 26.301 10.178 4.673.501 9.236.403 13.63-.22a55.5 55.5 0 0 0 17.501-5.559l-.036 5.621v84.975c0 4.9 1.748 9.384 4.612 12.903 3.277 3.995 8.071 6.72 13.472 7.258.655.061 1.371.097 2.063.097h65.54c.692 0 1.372-.036 2.064-.097a20 20 0 0 0 13.475-7.283 19.93 19.93 0 0 0 4.58-12.902v-90.572c5.37 2.798 11.27 4.68 17.51 5.559 4.39.599 8.94.721 13.63.22 9.79-1.038 18.85-4.741 26.45-10.3h.04c.21-.186.45-.36.66-.513l.03-.024c12.67-9.599 21.15-24.483 22.15-41.175h.12c.06-.94.1-1.881.1-2.822m33.34-52.135c.16 2.163.28 4.363.28 6.562v52.293h.6v.061c16.15 0 29.26-13.196 29.26-29.458s-13.11-29.458-29.26-29.458zm-334.787-.085c-16.117.001-29.225 13.195-29.225 29.457s13.071 29.458 29.225 29.458h.595v-52.354c0-2.199.097-4.398.279-6.561z" clip-rule="evenodd"/><path fill="#00151B" d="m848.847 565.29.313-.389zm221.893-.355.29.404zm-222.069.223-.293.405zm122.469 27.37-.5.024zm-2.815.278.477-.148zm-1.736-1.785.471.167h.001zm-15.679 2 .478.148zm-2.722-.482.499.023zm11.026-2.819.461-.192zm.978-.111.462.192zm110.578-24.698-.29-.404-.03.023.29.405.29.404.04-.023zm-.03.024-.29-.405c-.21.15-.47.341-.7.546l.33.372.33.373c.19-.165.41-.326.62-.482zm-221.492.635.314-.389c-.084-.068-.176-.127-.242-.17l-.273.419-.273.419c.075.049.123.08.16.111zm-.201-.14.273-.419a2 2 0 0 1-.16-.11l-.313.389-.314.389c.084.068.176.127.241.17zm-.2-.14.313-.389c-.069-.056-.141-.108-.196-.148l-.293.405-.293.405c.058.043.109.079.155.116zm-.176-.132.293-.405a3 3 0 0 1-.131-.098l-.326.378-.327.379c.064.055.141.11.198.151zm122.371 25.093-.5.017c.026.766.062 1.527.098 2.284l.5-.024.499-.024c-.036-.758-.072-1.512-.097-2.27zm.098 2.277-.5.024c.05 1.048.1 2.088.121 3.134l.5-.01.5-.01a117 117 0 0 0-.122-3.162zm-1.773 3.502.472-.165a94 94 0 0 1-1.037-3.207l-.477.148-.478.148c.335 1.08.672 2.167 1.048 3.242zm-1.042-3.224.477-.148q-.297-.967-.61-1.938l-.475.154-.476.154c.207.64.406 1.282.606 1.926zm-1.677-1.954-.472-.164-.059.167.472.166.472.167.06-.173zm-.059.169-.472-.166-.025.073.471.166.472.165.025-.071zm-15.002-.134-.475-.156c-.234.71-.457 1.426-.679 2.141l.477.149.478.148c.223-.716.443-1.424.674-2.126zm-.677 2.134-.477-.149a104 104 0 0 1-.97 3.007l.473.163.472.163c.35-1.015.667-2.032.98-3.036zm-2.844 2.679.5.01c.021-1.051.071-2.094.121-3.148l-.499-.023-.5-.024c-.05 1.051-.1 2.108-.121 3.175zm.122-3.161.499.023c.036-.755.072-1.516.098-2.282l-.5-.016-.5-.017c-.025.757-.061 1.511-.097 2.268zm10.583-3.864-.458.199q.22.511.44 1.039l.461-.193.461-.192a65 65 0 0 0-.445-1.052zm.443 1.045-.461.193q.153.37.311.742l.46-.196.46-.196q-.155-.366-.309-.735zm.621.736.459.199q.184-.427.36-.854l-.462-.192-.462-.192q-.176.428-.354.84zm.357-.847.462.192q.194-.472.396-.937l-.458-.201-.458-.2a51 51 0 0 0-.404.954zm7.476-16.17-.9-.435-.002.003zm1.869.318-.995.096v.007zm.595 5.718-.995.103v.001zm.91 10.776.999-.033v-.014l-.001-.013zm.219 5.425.707.707.301-.301-.008-.426zm-.025.024-.707-.707-.293.293v.414zm.005.936-1 .008zm-1.567.279-.945.329zm-.307-.885.945-.326-.001-.004zm-1.65-5.156.951-.308zm-1.069-.022.945.326zm-.085.242.943.333.001-.002zm-2.803 7.563.932.363.001-.003zm-.692 2.822.984.18.007-.04.004-.041zm-.813 4.46.969.247.009-.034.006-.033zm-.158.623-.97-.246-.002.01-.002.01zm-2.027 1.601v1zm-.838 0v1zm-2.026-1.601-.976.22.002.007zm-.121-.538-.983.183.003.018.004.019zm-.874-4.715-.99.144.003.019.004.019zm-.692-2.701.932-.36zm-2.804-7.502-.944.331.003.01zm-.087-.25.944-.329zm-1.041.031.95.312.007-.021.006-.021zm-1.651 5.155.943.33.002-.004zm-1.87-.342-.999-.02zm.219-5.436-.998-.061-.001.014v.013zm.91-10.777.995.105v-.001zm.595-5.717-.992-.124-.002.01-.001.01zm1.869-.319-.902.431.003.006zm2.683 5.523-.9.437.001.002zm4.429 9.701.918-.399-.002-.003zm.753 1.784-.92.392.012.027.013.027zm.311-.003.917.398zm.757-1.793-.916-.402v.001zm4.43-9.701-.901-.432-.001.001zm-91.379-75.019.502-.864-.004-.003zm23.461 13.635-.503.865.004.002zm0 3.959-.499-.867-.004.002zm-23.461 13.623-.503-.865-.005.004zm7.21-56.642v-1zm42.297 42.58h1zm-42.297 42.555v1zm-42.297-42.555h-1zm42.297-28.884v-1zm-28.667 28.859h-1zm28.667 28.859v1zm28.668-28.859h1zm150.459-8.809v-1zm0 16.591v1zM959.524 378l.629-.778-.628-.507-.628.506zm31.63 16.519-.28.959.001.001zm16.666 4.837-.28.961 1.72.499-.48-1.726zm-2.53-9.138.08-.997-1.42-.107.38 1.37zm46.23 3.482-.07.997zm71.07 55.677-.95.315.25.761.8-.081zm4.77-.22v-1zm48.69 49.019h1zm-49.29 49.018v-1h-1v1zm0 20.723h1zm-45.95 55.433.18.983zm-30.1 5.498-.96-.27-.43 1.541 1.57-.288zm3.68-13.122.96.269.36-1.269h-1.32zm-1.13 0v-1h-.26l-.23.129zm-22.99 12.975-.49-.871-.51.287v.584zm0 37.876h1zm-141.516 0h-1zm0-37.876h1v-.584l-.509-.287zm-22.987-12.975.491-.871-.229-.129h-.262zm-1.129 0v-1h-1.319l.356 1.269zm3.676 13.122-.179.983 1.574.288-.432-1.541zm-30.075-5.498-.18.983zm-45.951-55.433h-1zm0-20.723h1v-1h-1zm-.595 0v1zM743 498.176h-1zm48.693-49.019v-1zm4.771.22-.102.995.798.081.253-.761zm71.062-55.677.075.997h.001zm46.205-3.482.965.264.374-1.368-1.414.107zm-2.5 9.138-.964-.263-.471 1.723 1.715-.499zm16.628-4.837.28.96zm165.281 126.395-1-.01v.01zm-59.08-54.394-.08-.997-.02.001-.01.002zm-19.43 5.815.45.889.01-.001zm-47.58 24.436.451.893.006-.003zm-7.428 1.784v1zm-7.428-1.784.461-.887-.004-.002zm-47.577-24.436.457-.89h-.001zm-19.213-5.779.114-.994-.014-.002-.015-.001zm-59.301 54.358h1l-.001-.011zm.096 2.822.998-.06v-.004zm22.308 41.297.653-.757-.026-.022-.027-.02zm.34.257.627-.779zm.401.28-.627.779.02.016.02.015zm26.301 10.178.106-.994zm13.63-.22-.14-.99h-.001zm17.501-5.559 1 .006.01-1.646-1.466.749zm-.036 5.621-1-.007v.007zm4.612 97.878-.776.631.003.003zm13.472 7.258-.1.995h.007zm2.063.097v1zm67.604-.097.087.996.008-.001.008-.001zm13.475-7.283-.78-.636v.004zm4.58-12.902h-1v.007zm0-90.572.47-.887-1.47-.763v1.65zm17.51 5.559-.14.991zm13.63.22-.11-.994zm26.45-10.3v-1h-.32l-.26.193zm.04 0v1h.38l.29-.255zm.66-.513.59.809zm.03-.024.59.809.01-.006.01-.006zm22.15-41.175v-1h-.94l-.06.94zm.12 0v1h.94l.06-.935zm33.44-54.957v-1h-1.07l.08 1.073zm.28 58.855h-1v1h1zm.6 0h1v-1h-1zm0 .061h-1v1h1zm29.26-29.458h1zm-364.927-29.543v-1zm-29.225 29.457h-1zm29.225 29.458v1zm.595 0v1h1v-1zm0-52.354h-1zm.279-6.561.997.084.091-1.084h-1.088zm175.101 104.745.9.436q.013-.02.009-.016l-.011.008-.006.002.005.001h.002l-.013-.01-.014-.019.002.012.995-.096.995-.097c-.199-2.06-2.911-2.422-3.764-.656zm1.869.318-.995.103.595 5.718.995-.103.994-.104-.594-5.718zm.595 5.718-.995.104c.375 3.569.689 7.134.907 10.732l.998-.06.998-.06c-.219-3.635-.536-7.23-.914-10.821zm.91 10.776-.999.033c.062 1.881.181 3.585.218 5.412l1-.02 1-.02c-.037-1.806-.161-3.687-.22-5.438zm.219 5.425-.707-.707-.025.024.707.707.707.707.025-.024zm-.025.024h-1q.001.475.005.944l1-.008 1-.009q-.004-.466-.005-.927zm.005.936-1 .008c.001.049-.011.026.026-.021a.246.246 0 0 1 .315-.053c.054.033.052.062.036.016l-.944.329-.945.329c.321.92 1.171 1.418 2.034 1.264.86-.154 1.486-.91 1.478-1.881zm-1.567.279.944-.329-.306-.882-.945.326-.945.327.307.887zm-.307-.885.944-.33c-.592-1.691-1.068-3.361-1.643-5.134l-.951.308-.951.308c.541 1.673 1.06 3.473 1.657 5.179zm-1.65-5.156.951-.308c-.445-1.374-2.456-1.513-2.965-.041l.945.327.945.326a.45.45 0 0 1-.43.299.435.435 0 0 1-.397-.295zm-1.069-.022-.945-.327-.083.238.943.331.944.331c.026-.074.058-.163.086-.247zm-.085.242-.942-.333a286 286 0 0 1-2.794 7.536l.933.36.933.36a286 286 0 0 0 2.813-7.59zm-2.803 7.563-.932-.363a11.7 11.7 0 0 0-.755 3.087l.995.098.995.099a9.7 9.7 0 0 1 .629-2.558zm-.692 2.822-.983-.179-.814 4.46.984.179.984.18.813-4.46zm-.813 4.46-.969-.246-.159.623.97.246.969.247.158-.623zm-.158.623-.974-.226a1.07 1.07 0 0 1-1.053.827v2a3.07 3.07 0 0 0 3.001-2.374zm-2.027 1.601v-1h-.838v2h.838zm-.838 0 .001-1c-.511 0-.941-.344-1.053-.827l-.974.226-.974.227a3.07 3.07 0 0 0 3 2.374zm-2.026-1.601.976-.219-.121-.538-.976.219-.976.22.121.538zm-.121-.538.983-.182-.874-4.716-.983.183-.983.182.874 4.716zm-.874-4.715.989-.145a13.4 13.4 0 0 0-.749-2.916l-.932.36-.933.361c.308.799.511 1.629.635 2.484zm-.692-2.701.932-.36a365 365 0 0 1-2.796-7.482l-.94.34-.941.341c.913 2.523 1.85 5.034 2.812 7.522zm-2.804-7.502.944-.33-.087-.249-.944.329-.944.33.087.251zm-.087-.25.944-.329c-.494-1.416-2.537-1.376-2.948.089l.963.271.963.27c-.124.44-.723.44-.866.029zm-1.041.031-.95-.313c-.58 1.766-1.049 3.409-1.647 5.142l.946.326.945.326c.591-1.712 1.12-3.538 1.656-5.169zm-1.651 5.155-.944-.331a.3.3 0 0 1-.047.095q-.014.016-.005.007a.1.1 0 0 1 .032-.012.2.2 0 0 1 .044 0 .1.1 0 0 1 .065.036q.005.01-.004-.01a.4.4 0 0 1-.011-.107l-1-.02-.999-.02c-.022 1.07.643 1.915 1.589 2.089.948.173 1.869-.385 2.223-1.397zm-1.87-.342 1 .02c.037-1.83.156-3.539.219-5.423l-1-.033-.999-.034c-.059 1.756-.183 3.64-.219 5.45zm.219-5.436.998.06c.218-3.598.532-7.163.907-10.732l-.995-.105-.994-.104a244 244 0 0 0-.914 10.82zm.91-10.777.995.104.595-5.718-.995-.103-.995-.104-.594 5.718zm.595-5.717.992.123.003-.014.001-.002-.006.008-.002.001.006-.002q.004 0 0 0l-.017-.006a.1.1 0 0 1-.019-.013q-.003-.003-.001 0l.01.017.902-.431.903-.43c-.905-1.897-3.531-1.258-3.764.625zm1.869-.319-.899.437 2.682 5.523.9-.437.899-.437-2.682-5.523zm2.683 5.523-.899.439c1.556 3.18 2.98 6.401 4.413 9.664l.915-.402.916-.402c-1.432-3.262-2.871-6.517-4.447-9.739zm4.429 9.701-.917.398c.256.589.484 1.151.75 1.778l.92-.392.921-.392c-.244-.571-.503-1.207-.756-1.791zm.753 1.784-.895.446c.416.835 1.698.928 2.123-.051l-.917-.398-.917-.398a.83.83 0 0 1 .759-.498.83.83 0 0 1 .743.453zm.311-.003.917.398c.132-.303.258-.608.382-.906.124-.3.246-.593.374-.884l-.916-.401-.916-.401c-.136.311-.265.621-.389.919-.126.302-.245.592-.369.877zm.757-1.793.915.402a331 331 0 0 1 4.418-9.672l-.903-.431-.902-.431a337 337 0 0 0-4.444 9.73zm4.43-9.701.902.432 2.646-5.523-.902-.432-.902-.432-2.645 5.523zm-94.777-73.039h1a1.262 1.262 0 0 1 1.899-1.113l.499-.867.498-.867c-2.207-1.269-4.896.331-4.896 2.847zm3.398-1.98-.503.865 23.461 13.635.503-.865.502-.864-23.461-13.635zm23.461 13.635-.499.867c.861.495.861 1.73 0 2.225l.499.867.498.867c2.198-1.264 2.198-4.428 0-5.693zm0 3.959-.503-.865-23.461 13.623.503.865.502.865 23.461-13.623zm-23.461 13.623-.508-.861c-.81.477-1.89-.114-1.89-1.118h-2c0 2.514 2.73 4.122 4.905 2.841zm-3.398-1.979h1v-27.258h-2v27.258zm10.608-54.663v1c22.804 0 41.297 18.63 41.297 41.58h2c0-24.041-19.375-43.58-43.297-43.58zm42.297 42.58h-1c0 22.948-18.492 41.555-41.297 41.555v2c23.921 0 43.297-19.514 43.297-43.555zm-42.297 42.555v-1c-22.806 0-41.297-18.582-41.297-41.555h-2c0 24.066 19.375 43.555 43.297 43.555zm-42.297-42.555h1c0-22.974 18.491-41.58 41.297-41.58v-2c-23.923 0-43.297 19.514-43.297 43.58zm42.297-28.884v-1c-16.374 0-29.667 13.393-29.667 29.859h2c0-15.374 12.411-27.859 27.667-27.859zm-28.667 28.859h-1c0 16.466 13.294 29.859 29.667 29.859v-2c-15.256 0-27.667-12.485-27.667-27.859zm28.667 28.859v1c16.373 0 29.667-13.393 29.668-29.859h-2c-.001 15.374-12.412 27.859-27.668 27.859zm28.668-28.859h1c0-16.466-13.295-29.859-29.668-29.859v2c15.256 0 27.668 12.485 27.668 27.859zm150.459-8.809v1c.69 0 1.28.584 1.28 1.297h2c0-1.805-1.47-3.297-3.28-3.297zm2.28 2.297h-1v11.998h2v-11.998zm0 11.998h-1c0 .712-.59 1.296-1.28 1.296v2c1.81 0 3.28-1.492 3.28-3.296zm-2.28 2.296v-1H1016v2h43.98zm-43.98 0v-1c-.69 0-1.28-.584-1.28-1.296h-2c0 1.804 1.47 3.296 3.28 3.296zm-2.28-2.296h1v-11.998h-2v11.998zm0-11.998h1c0-.713.59-1.297 1.28-1.297v-2c-1.81 0-3.28 1.492-3.28 3.297zm2.28-2.297v1h43.98v-2H1016zM959.524 378l-.628.778a91.8 91.8 0 0 0 31.978 16.7l.28-.959.281-.96a89.8 89.8 0 0 1-31.282-16.337zm31.63 16.519-.279.96 16.665 4.838.28-.961.28-.96-16.667-4.838zm16.666 4.837.96-.266-2.52-9.138-.97.266-.96.266 2.52 9.139zm-2.53-9.138-.07.997 46.23 3.482.07-.997.08-.997-46.23-3.482zm46.23 3.482-.07.997c33.06 2.486 60.17 24.868 70.19 54.995l.95-.315.94-.315c-10.25-30.865-38.04-53.811-71.93-56.359zm71.07 55.677.1.995c1.51-.155 3.06-.215 4.67-.215v-2c-1.65 0-3.28.062-4.88.225zm4.77-.22v1c26.32 0 47.69 21.502 47.69 48.019h2c0-27.609-22.25-50.019-49.69-50.019zm48.69 49.019h-1c0 26.517-21.36 48.018-47.69 48.018v2c27.45 0 49.69-22.409 49.69-50.018zm-48.69 49.018v-1h-.6v2h.6zm-.6 0h-1v20.723h2v-20.723zm0 20.723h-1c0 26.756-19.01 49.674-45.13 54.449l.18.984.18.983c27.08-4.95 46.77-28.704 46.77-56.416zm-45.95 55.433-.18-.984-30.1 5.498.18.984.18.983 30.1-5.498zm-30.1 5.498.96.27 3.68-13.123-.96-.269-.97-.27-3.67 13.122zm3.68-13.122v-1h-1.13v2h1.13zm-1.13 0-.49-.871-22.99 12.975.49.871.49.871 22.99-12.976zm-22.99 12.975h-1v37.876h2v-37.876zm0 37.876h-1c0 19.333-15.57 34.994-34.754 34.994v2c20.304 0 36.754-16.569 36.754-36.994zm-35.754 35.994v-1H924.51v2h70.006zm-70.006 0v-1c-19.189 0-34.756-15.661-34.756-34.994h-2c0 20.425 16.45 36.994 36.756 36.994zm-35.756-35.994h1v-37.876h-2v37.876zm0-37.876.491-.871-22.987-12.975-.491.871-.492.87 22.987 12.976zm-22.987-12.975v-1h-1.129v2h1.129zm-1.129 0-.963.269 3.677 13.122.962-.269.963-.27-3.676-13.122zm3.676 13.122.18-.984-30.075-5.498-.18.984-.18.983 30.076 5.498zm-30.075-5.498.18-.984c-26.124-4.787-45.131-27.706-45.131-54.449h-2c0 27.7 19.688 51.453 46.771 56.416zm-45.951-55.433h1v-20.723h-2v20.723zm0-20.723v-1h-.595v2h.595zm-.595 0v-1c-26.324 0-47.693-21.501-47.693-48.018h-2c0 27.609 22.251 50.018 49.693 50.018zM743 498.176h1c0-26.517 21.357-48.019 47.693-48.019v-2c-27.454 0-49.693 22.41-49.693 50.019zm48.693-49.019v1a46 46 0 0 1 4.669.215l.102-.995.102-.995a49 49 0 0 0-4.873-.225zm4.771.22.949.315c9.988-30.091 37.131-52.509 70.188-54.995l-.075-.997-.075-.997c-33.89 2.548-61.704 25.531-71.936 56.359zm71.062-55.677.076.997 46.205-3.482-.076-.997-.075-.997-46.205 3.482zm46.205-3.482-.964-.264-2.5 9.139.964.263.965.264 2.5-9.138zm-2.5 9.138.28.961 16.628-4.838-.28-.96-.279-.961-16.628 4.838zm16.628-4.837.28.96a92.1 92.1 0 0 0 32.013-16.7l-.628-.779-.627-.779a90.1 90.1 0 0 1-31.317 16.337zm165.281 126.395 1 .01c.35-33.197-28.64-57.925-60.16-55.401l.08.997.08.996c30.42-2.436 58.33 21.438 58 53.388zm-59.08-54.394-.11-.994c-6.79.745-13.53 2.684-19.78 5.921l.46.888.46.888c6.02-3.117 12.52-4.989 19.08-5.709zm-19.43 5.815-.46-.89-47.577 24.437.457.889.457.89 47.573-24.437zm-47.58 24.436-.452-.892a15.4 15.4 0 0 1-6.976 1.676v2c2.719 0 5.398-.636 7.879-1.891zm-7.428 1.784v-1c-2.409 0-4.811-.552-6.967-1.671l-.461.887-.46.888c2.456 1.275 5.176 1.896 7.888 1.896zm-7.428-1.784.457-.889-47.577-24.437-.457.89-.457.889 47.577 24.437zm-47.577-24.436.456-.89c-6.191-3.172-12.826-5.112-19.555-5.883l-.114.994-.113.993c6.499.745 12.901 2.617 18.87 5.676zm-19.213-5.779.085-.997c-31.585-2.686-60.77 22.081-60.386 55.367l1-.012.999-.011c-.369-32.032 27.734-55.943 58.218-53.351zm-59.301 54.358h-1c0 .966.037 1.929.098 2.887l.998-.065.998-.064a43 43 0 0 1-.094-2.758zm.096 2.822-.998.06c1.026 17.044 9.724 32.289 22.705 42.037l.601-.8.6-.799c-12.53-9.41-20.921-24.124-21.91-40.558zm22.308 41.297-.653.757c.081.07.172.136.223.173.064.046.106.076.142.106l.628-.779.627-.779c-.085-.068-.171-.13-.225-.169l-.068-.05-.021-.016zm.34.257-.628.779c.107.086.221.159.282.199.079.052.105.07.12.081l.627-.779.627-.779c-.107-.086-.221-.159-.282-.199a1 1 0 0 1-.119-.081zm.401.28-.587.81c7.72 5.595 16.865 9.304 26.782 10.362l.106-.994.106-.994c-9.551-1.019-18.368-4.592-25.82-9.993zm26.301 10.178-.107.994c4.756.51 9.402.411 13.877-.224l-.14-.99-.141-.99a54 54 0 0 1-13.383.216zm13.63-.22.14.99a56.5 56.5 0 0 0 17.816-5.659l-.455-.89-.456-.891a54.5 54.5 0 0 1-17.185 5.46zm17.501-5.559-1-.007-.036 5.621 1 .007 1 .006.036-5.621zm-.036 5.621h-1v84.975h2V575.59zm0 84.975h-1c0 5.143 1.835 9.847 4.836 13.534l.776-.631.775-.632c-2.727-3.35-4.387-7.614-4.387-12.271zm4.612 12.903-.773.634c3.437 4.19 8.469 7.054 14.145 7.619l.1-.995.099-.995c-5.125-.511-9.681-3.097-12.798-6.897zm13.472 7.258-.093.995c.684.064 1.431.102 2.156.102v-2c-.658 0-1.344-.035-1.971-.093zm2.063.097v1h65.54v-2h-65.54zm65.54 0v1c.727 0 1.437-.038 2.151-.101l-.087-.996-.088-.997c-.67.06-1.32.094-1.976.094zm2.064-.097.103.994a21 21 0 0 0 14.142-7.645l-.77-.632-.78-.632a18.99 18.99 0 0 1-12.799 6.92zm13.475-7.283.77.636c3.04-3.691 4.85-8.401 4.81-13.545l-1 .007-1 .007c.04 4.655-1.6 8.914-4.36 12.259zm4.58-12.902h1v-90.572h-2v90.572zm0-90.572-.46.886c5.47 2.853 11.48 4.768 17.83 5.664l.14-.991.14-.99c-6.13-.864-11.92-2.712-17.18-5.456zm17.51 5.559-.14.991c4.47.609 9.1.734 13.87.223l-.1-.994-.11-.994c-4.6.491-9.07.372-13.39-.217zm13.63.22.1.994c9.98-1.058 19.2-4.829 26.94-10.486l-.59-.808-.58-.807c-7.48 5.461-16.37 9.094-25.98 10.113zm26.45-10.3v1h.04v-2h-.04zm.04 0 .67.745c.16-.145.36-.29.58-.449l-.59-.809-.59-.809c-.2.147-.48.351-.74.577zm.66-.513.59.809.03-.024-.59-.809-.59-.809-.03.024zm.03-.024.61.797c12.88-9.767 21.52-24.915 22.54-41.912l-1-.06-1-.06c-.98 16.388-9.31 31.008-21.75 40.438zm22.15-41.175v1h.12v-2h-.12zm.12 0 1 .065c.06-.957.1-1.92.1-2.887h-2q0 1.372-.09 2.758zm33.44-54.957-.99.073c.15 2.152.27 4.324.27 6.489h2c0-2.234-.12-4.461-.28-6.634zm.28 6.562h-1v52.293h2v-52.293zm0 52.293v1h.6v-2h-.6zm.6 0h-1v.061h2v-.061zm0 .061v1c16.71 0 30.26-13.65 30.26-30.458h-2c0 15.716-12.67 28.458-28.26 28.458zm29.26-29.458h1c0-16.808-13.55-30.458-30.26-30.458v2c15.59 0 28.26 12.742 28.26 28.458zm-29.26-29.458v-1h-.88v2h.88zm-335.667-.085v-1c-16.677.001-30.225 13.65-30.225 30.457h2c0-15.716 12.667-28.456 28.225-28.457zm-29.225 29.457h-1c0 16.807 13.511 30.458 30.225 30.458v-2c-15.594 0-28.225-12.74-28.225-28.458zm29.225 29.458v1h.595v-2h-.595zm.595 0h1v-52.354h-2v52.354zm0-52.354h1c0-2.17.096-4.341.276-6.477l-.997-.084-.996-.084a80 80 0 0 0-.283 6.645zm.279-6.561v-1h-.874v2h.874z" mask="url(#a)"/></svg>