<svg xmlns="http://www.w3.org/2000/svg" width="32" height="32" fill="none"><path fill="#00151B" d="M3.819 9.54 15.726 6l1.978 1.47 9.026 1.585 3.454 1.052.816 2.62-1.58 2.088-2.187.65-1.301 1.77-5.086 2.204-.486 4.875L19.457 26l-7.914-.217-.764-5.008-6.648-5.31-3.28-1.569L0 11.526l2.24-1.987z"/><path fill="#23FC94" d="M28.402 9.258q-.18 0-.353.016C27.3 7.021 25.272 5.346 22.8 5.16l-3.417-.257.187.675-1.232-.357A6.7 6.7 0 0 1 16 4a6.7 6.7 0 0 1-2.34 1.22l-1.229.358.185-.675-3.414.257c-2.474.186-4.504 1.864-5.251 4.114a4 4 0 0 0-.353-.016C1.611 9.258 0 10.881 0 12.88c0 2 1.612 3.623 3.598 3.623h.044v1.53a4.16 4.16 0 0 0 3.396 4.097l2.222.406-.272-.97h.084l1.698.96v2.798a2.65 2.65 0 0 0 2.643 2.66h5.173c1.459 0 2.642-1.19 2.642-2.66v-2.799l1.698-.958h.084l-.272.97 2.224-.407a4.155 4.155 0 0 0 3.396-4.096v-1.531h.044c1.987 0 3.598-1.623 3.598-3.623s-1.612-3.622-3.598-3.622m-24.76 1.933v3.864h-.044a2.17 2.17 0 0 1-2.16-2.176 2.17 2.17 0 0 1 2.16-2.177h.065q-.02.24-.02.485zm22.215 3.576a4.14 4.14 0 0 1-1.636 3.045q-.026.017-.052.04h-.002a4.04 4.04 0 0 1-2.963.744 4 4 0 0 1-1.293-.41v6.692c.003.362-.125.694-.339.954a1.48 1.48 0 0 1-1.148.545h-4.843a1.48 1.48 0 0 1-1.148-.543 1.5 1.5 0 0 1-.34-.954V18.6l.002-.415a4.1 4.1 0 0 1-2.3.428 4.04 4.04 0 0 1-1.944-.753l-.03-.02q-.013-.011-.025-.02a4.14 4.14 0 0 1-1.655-3.26c-.028-2.413 2.089-4.211 4.382-4.016.489.056.97.197 1.42.427l3.515 1.806a1.211 1.211 0 0 0 1.098 0l3.516-1.806a4.1 4.1 0 0 1 1.436-.43c2.288-.183 4.39 1.613 4.366 4.02q0 .105-.008.208h-.009zm2.545.29h-.044v-3.864c0-.163-.01-.325-.02-.485h.064a2.17 2.17 0 0 1 2.162 2.177 2.17 2.17 0 0 1-2.162 2.177z"/><path fill="#23FC94" d="M10.186 11.428c-1.726 0-3.125 1.408-3.125 3.146s1.399 3.145 3.125 3.145a3.135 3.135 0 0 0 3.126-3.145c0-1.736-1.4-3.146-3.126-3.146m0 5.277a2.127 2.127 0 0 1-2.118-2.133c0-1.176.95-2.132 2.118-2.132 1.169 0 2.119.956 2.119 2.132s-.95 2.133-2.119 2.133"/><path fill="#23FC94" d="m11.387 14.314-1.734-1.007a.167.167 0 0 0-.25.146v2.014c0 .13.14.211.25.146l1.734-1.006a.17.17 0 0 0 0-.293M20.173 15.147h3.25a.17.17 0 0 0 .169-.17v-.886a.17.17 0 0 0-.169-.17h-3.25a.17.17 0 0 0-.169.17v.887c0 .093.076.17.169.17M16.866 20.086h.001c-.003-.135-.011-.268-.016-.402q-.025-.4-.067-.796l-.044-.423c-.007-.074-.106-.09-.138-.023l-.196.408q-.169.355-.327.717-.029.067-.056.132c-.005.01-.018.01-.023 0l-.056-.131c-.105-.241-.211-.48-.327-.717l-.198-.408c-.033-.068-.13-.049-.138.023l-.044.423q-.042.396-.068.796c-.004.135-.013.267-.016.402-.002.093.108.113.138.025.044-.127.081-.255.123-.38.01-.039.063-.04.076-.003l.007.018q.1.28.207.555a1 1 0 0 1 .051.2l.065.348.009.04c.016.069.078.118.15.118h.061a.15.15 0 0 0 .15-.118l.012-.047.06-.33a.8.8 0 0 1 .051-.208q.107-.278.207-.558l.006-.018c.014-.038.067-.037.08.001.04.128.077.256.121.381l.023.066c.025.071.116.055.116-.021z"/></svg>