<svg width="90" height="90" viewBox="0 0 90 90" fill="none" xmlns="http://www.w3.org/2000/svg">
<rect width="90" height="90" rx="22.75" fill="#0A2E3A"/>
<path d="M72.1627 30.0809V30.0809C71.7229 30.0809 71.3159 29.817 71.1532 29.4085C69.3824 24.9641 65.2276 21.7211 60.2164 21.3443L53.5927 20.8454C53.2717 20.8212 53.0238 21.1226 53.1095 21.4329V21.4329C53.2064 21.7837 52.8811 22.1048 52.5316 22.0033L50.706 21.4733V21.4733C47.5367 20.5478 43.9049 20.5505 40.7349 21.4733V21.4733L38.9144 22.003C38.5648 22.1047 38.2389 21.784 38.335 21.4328V21.4328C38.4199 21.1222 38.1717 20.8212 37.8507 20.8454L31.2302 21.3443C26.2193 21.7211 22.0613 24.969 20.2933 29.4084C20.1306 29.8169 19.7236 30.0809 19.2839 30.0809V30.0809C15.0469 30.0809 11.6129 33.5397 11.6129 37.803C11.6129 42.0664 15.0488 45.5252 19.2839 45.5252V45.5252C19.3357 45.5252 19.3776 45.5672 19.3776 45.6189V48.7896C19.3776 53.078 22.4254 56.7544 26.6165 57.5223L30.1966 58.1768C30.7313 58.2746 31.1835 57.7784 31.0368 57.255L30.8152 56.4641C30.7951 56.3924 30.849 56.3213 30.9234 56.3213V56.3213C30.9428 56.3213 30.9618 56.3263 30.9787 56.3358L32.0769 56.9557C33.62 57.8267 34.5743 59.4613 34.5743 61.2332V64.3322C34.5743 67.4638 37.0963 70.0026 40.2071 70.0026H51.2356C54.3465 70.0026 56.8685 67.4638 56.8685 64.3322V61.2332C56.8685 59.4613 57.8228 57.8267 59.3659 56.9557L60.4641 56.3358C60.481 56.3263 60.5 56.3213 60.5194 56.3213V56.3213C60.5938 56.3213 60.6477 56.3924 60.6276 56.4641L60.4059 57.2551C60.2592 57.7785 60.7115 58.2747 61.2462 58.177L64.8301 57.5223C69.0212 56.7563 72.069 53.08 72.069 48.7896V45.6189C72.069 45.5672 72.1109 45.5252 72.1627 45.5252V45.5252C76.3997 45.5252 79.8337 42.0664 79.8337 37.803C79.8337 33.5397 76.3978 30.0809 72.1627 30.0809ZM19.3776 34.2018V42.3461C19.3776 42.3979 19.3357 42.4398 19.2839 42.4398V42.4398C16.739 42.4398 14.6798 40.3611 14.6798 37.7992C14.6798 35.2373 16.7448 33.1586 19.2839 33.1586V33.1586C19.358 33.1586 19.4162 33.2219 19.4108 33.2958C19.3891 33.5921 19.3776 33.8921 19.3776 34.1922V34.2018ZM66.7383 41.8258C66.5815 44.457 65.245 46.8033 63.2489 48.3161C63.2152 48.3406 63.1761 48.3688 63.1422 48.3988C63.1407 48.4001 63.1388 48.4008 63.1368 48.4008V48.4008C63.1351 48.4008 63.1334 48.4014 63.132 48.4024C61.9336 49.2773 60.508 49.8599 58.9659 50.0234C58.2279 50.1023 57.5109 50.0831 56.8187 49.9888V49.9888C55.5084 49.804 54.0616 50.6966 54.0616 52.0199V63.3813C54.0673 64.1532 53.7958 64.8596 53.3389 65.4139C52.8226 66.0472 52.0712 66.4725 51.2165 66.5611C51.1075 66.5707 51.0005 66.5765 50.8915 66.5765H40.5666C40.4576 66.5765 40.3448 66.5707 40.2415 66.5611C39.3907 66.4764 38.6355 66.0472 38.1192 65.4178C37.668 64.8634 37.3926 64.157 37.3926 63.3852V49.9984V49.9984C37.3953 49.595 36.967 49.3292 36.5913 49.4762C35.9715 49.7186 35.3187 49.8929 34.6413 49.9888C33.9491 50.0869 33.2302 50.1023 32.4941 50.0234C30.9606 49.8598 29.5457 49.2862 28.3507 48.4201C28.3316 48.4047 28.3067 48.3912 28.2876 48.3758C28.2685 48.3604 28.2475 48.3469 28.2341 48.3354C26.2246 46.8264 24.8785 44.4666 24.7198 41.8297C24.7102 41.6815 24.7045 41.5333 24.7045 41.385C24.6452 36.2401 29.1576 32.406 34.0466 32.8217C35.0887 32.9411 36.1154 33.2413 37.0733 33.7321L44.5684 37.5817C44.9317 37.7703 45.3352 37.8627 45.7386 37.8627C46.142 37.8627 46.5397 37.7684 46.9088 37.5817L54.4039 33.7321C55.3713 33.2317 56.4134 32.9314 57.465 32.816C62.3445 32.4252 66.8262 36.2536 66.7727 41.385C66.7727 41.5302 66.7672 41.6753 66.758 41.8204C66.7577 41.8256 66.7534 41.8297 66.7482 41.8297H66.7421C66.74 41.8297 66.7383 41.8279 66.7383 41.8258V41.8258ZM72.1627 42.4485C72.1627 42.4458 72.1605 42.4437 72.1579 42.4437H72.1158C72.09 42.4437 72.069 42.4227 72.069 42.3968V34.2056C72.069 33.9056 72.0547 33.6056 72.0347 33.3094C72.0297 33.2352 72.0883 33.172 72.1627 33.172V33.172C74.7076 33.172 76.7726 35.2508 76.7726 37.8127C76.7726 40.3729 74.7102 42.4507 72.1675 42.4533C72.1649 42.4533 72.1627 42.4511 72.1627 42.4485V42.4485Z" fill="#23FC94"/>
<path d="M33.3296 34.7061C29.649 34.7061 26.6663 37.7087 26.6663 41.4139C26.6663 45.1191 29.649 48.1179 33.3296 48.1179C37.0103 48.1179 39.993 45.1152 39.993 41.4139C39.993 37.7126 37.0103 34.7061 33.3296 34.7061ZM33.3296 45.9564C30.8383 45.9564 28.8135 43.918 28.8135 41.4101C28.8135 38.9021 30.8383 36.8637 33.3296 36.8637C35.821 36.8637 37.8458 38.9021 37.8458 41.4101C37.8458 43.918 35.821 45.9564 33.3296 45.9564Z" fill="#23FC94"/>
<path d="M35.8897 40.8596L32.1938 38.7115C31.9529 38.573 31.6584 38.7462 31.6584 39.0234V43.3175C31.6584 43.5947 31.9586 43.7679 32.1938 43.6293L35.8897 41.4832C36.1307 41.3446 36.1307 40.9982 35.8897 40.8596Z" fill="#23FC94"/>
<path d="M54.6198 42.6361H61.549C61.7459 42.6361 61.9084 42.4725 61.9084 42.2743V40.3841C61.9084 40.1859 61.7459 40.0223 61.549 40.0223H54.6198C54.4229 40.0223 54.2604 40.1859 54.2604 40.3841V42.2743C54.2604 42.4725 54.4229 42.6361 54.6198 42.6361Z" fill="#23FC94"/>
<path d="M47.5703 53.1647C47.5714 53.1647 47.5722 53.1638 47.5722 53.1627C47.5664 52.8766 47.5473 52.5943 47.5378 52.3081C47.5034 51.7384 47.4537 51.1744 47.3944 50.6105L47.3007 49.7097C47.2854 49.5519 47.0751 49.5172 47.0063 49.6596L46.5894 50.5296C46.3485 51.0339 46.1172 51.544 45.8916 52.0579C45.85 52.1528 45.8125 52.2478 45.7722 52.3405C45.7627 52.3623 45.7339 52.3621 45.7233 52.3408V52.3408C45.6832 52.2465 45.6449 52.1522 45.6048 52.0598C45.3791 51.5459 45.1535 51.0359 44.9069 50.5316L44.4843 49.6616C44.4155 49.5172 44.209 49.5576 44.1899 49.7116L44.0962 50.6124C44.0369 51.1764 43.9872 51.7403 43.9528 52.3101C43.9432 52.5968 43.9241 52.8798 43.9184 53.1666V53.1666C43.9144 53.3641 44.1475 53.4069 44.2128 53.2205V53.2205C44.3065 52.9491 44.3849 52.6758 44.4728 52.4082V52.4082C44.4955 52.3274 44.6092 52.3243 44.6369 52.4035C44.6415 52.4166 44.6461 52.4298 44.6507 52.4429C44.7941 52.8394 44.9413 53.2339 45.0923 53.6247C45.1459 53.7633 45.1803 53.9057 45.2013 54.05L45.339 54.793L45.3581 54.8777C45.3925 55.0259 45.5245 55.1298 45.6774 55.1298H45.8093C45.9623 55.1298 46.0942 55.0259 46.1287 54.8777L46.1535 54.7795L46.2816 54.077C46.2969 53.923 46.3351 53.7748 46.3906 53.6324C46.5436 53.2359 46.6908 52.8413 46.8323 52.4409C46.8367 52.4283 46.8412 52.4155 46.8456 52.4027C46.8735 52.322 46.9876 52.3251 47.0139 52.4063V52.4063C47.1019 52.6777 47.1803 52.951 47.2739 53.2185C47.29 53.2651 47.3061 53.3116 47.3223 53.358C47.3754 53.5106 47.5705 53.4756 47.5691 53.314C47.5687 53.2648 47.5684 53.2157 47.5684 53.1665C47.5684 53.1655 47.5692 53.1647 47.5703 53.1647V53.1647Z" fill="#23FC94"/>
</svg>
